PathFileType	4	(X / Y / Z)	Demo_145623_11_September_2019	Demo_145623_11_September_2019.trc
DataRate	CameraRate	NumFrames	NumMarkers	Units	OrigDataRate	OrigDataStartFrame	OrigNumFrames
50	50	16	25	m	50	357	820
Frame#	Time		SpineBase		SpineMid		Neck		Head		ShoulderLeft		ElbowLeft		WristLeft		HandLeft		ShoulderRight		ElbowRight		WristRight		HandRight		HipLeft		KneeLeft		AnkleLeft		FootLeft		HipRight		KneeRight		AnkleRight		FootRight		SpineShoulder		HandTipLeft		LeftThumb		HandTipRight		ThumbRight		
X1	Y1	Z1	X2	Y2	Z2	X3	Y3	Z3	X4	Y4	Z4	X5	Y5	Z5	X6	Y6	Z6	X7	Y7	Z7	X8	Y8	Z8	X9	Y9	Z9	X10	Y10	Z10	X11	Y11	Z11	X12	Y12	Z12	X13	Y13	Z13	X14	Y14	Z14	X15	Y15	Z15	X16	Y16	Z16	X17	Y17	Z17	X18	Y18	Z18	X19	Y19	Z19	X20	Y20	Z20	X21	Y21	Z21	X22	Y22	Z22	X23	Y23	Z23	X24	Y24	Z24	X25	Y25	Z25	
308	28.440	0.088	0.813	1.761	0.086	1.088	1.739	0.086	1.352	1.706	0.101	1.490	1.675	-0.059	1.252	1.680	-0.102	1.005	1.669	-0.146	0.820	1.619	-0.142	0.754	1.605	0.285	1.258	1.724	0.490	1.222	1.732	0.662	1.221	1.729	0.725	1.236	1.707	0.017	0.821	1.718	-0.067	0.501	1.752	-0.083	0.168	1.864	-0.070	0.134	1.766	0.156	0.812	1.740	0.128	0.513	1.798	0.080	0.210	1.927	0.090	0.162	1.817	0.086	1.287	1.716	-0.146	0.693	1.588	-0.180	0.754	1.620	0.790	1.268	1.694	0.717	1.250	1.712
309	28.457	0.088	0.813	1.761	0.086	1.088	1.739	0.086	1.352	1.706	0.101	1.490	1.675	-0.059	1.252	1.680	-0.102	1.005	1.669	-0.146	0.820	1.619	-0.142	0.754	1.605	0.285	1.258	1.724	0.490	1.222	1.732	0.662	1.221	1.729	0.725	1.236	1.707	0.017	0.821	1.718	-0.067	0.501	1.752	-0.083	0.168	1.864	-0.070	0.134	1.766	0.156	0.812	1.740	0.128	0.513	1.798	0.080	0.210	1.927	0.090	0.162	1.817	0.086	1.287	1.716	-0.146	0.693	1.588	-0.180	0.754	1.620	0.790	1.268	1.694	0.717	1.250	1.712
310	28.474	0.094	0.812	1.761	0.091	1.087	1.739	0.089	1.352	1.705	0.102	1.490	1.675	-0.056	1.252	1.680	-0.097	1.004	1.668	-0.140	0.816	1.619	-0.136	0.751	1.607	0.286	1.258	1.722	0.480	1.170	1.738	0.663	1.139	1.738	0.719	1.135	1.721	0.023	0.819	1.719	-0.064	0.500	1.751	-0.082	0.175	1.863	-0.067	0.138	1.758	0.162	0.811	1.740	0.131	0.513	1.798	0.081	0.210	1.926	0.091	0.162	1.817	0.089	1.287	1.715	-0.137	0.689	1.591	-0.173	0.751	1.620	0.787	1.143	1.704	0.699	1.155	1.731
311	28.490	0.094	0.812	1.761	0.091	1.087	1.739	0.089	1.352	1.705	0.102	1.490	1.675	-0.056	1.252	1.680	-0.097	1.004	1.668	-0.140	0.816	1.619	-0.136	0.751	1.607	0.286	1.258	1.722	0.480	1.170	1.738	0.663	1.139	1.738	0.719	1.135	1.721	0.023	0.819	1.719	-0.064	0.500	1.751	-0.082	0.175	1.863	-0.067	0.138	1.758	0.162	0.811	1.740	0.131	0.513	1.798	0.081	0.210	1.926	0.091	0.162	1.817	0.089	1.287	1.715	-0.137	0.689	1.591	-0.173	0.751	1.620	0.787	1.143	1.704	0.699	1.155	1.731
312	28.507	0.099	0.810	1.762	0.095	1.086	1.738	0.092	1.351	1.704	0.104	1.490	1.676	-0.054	1.251	1.679	-0.093	1.003	1.666	-0.136	0.813	1.619	-0.132	0.748	1.609	0.287	1.256	1.721	0.465	1.122	1.743	0.645	1.055	1.749	0.696	1.036	1.737	0.027	0.817	1.719	-0.061	0.498	1.751	-0.082	0.179	1.862	-0.065	0.140	1.754	0.167	0.809	1.740	0.134	0.512	1.799	0.081	0.210	1.926	0.091	0.162	1.817	0.093	1.286	1.715	-0.131	0.685	1.594	-0.169	0.749	1.621	0.760	1.012	1.711	0.716	1.041	1.729
313	28.524	0.099	0.810	1.762	0.095	1.086	1.738	0.092	1.351	1.704	0.104	1.490	1.676	-0.054	1.251	1.679	-0.093	1.003	1.666	-0.136	0.813	1.619	-0.132	0.748	1.609	0.287	1.256	1.721	0.465	1.122	1.743	0.645	1.055	1.749	0.696	1.036	1.737	0.027	0.817	1.719	-0.061	0.498	1.751	-0.082	0.179	1.862	-0.065	0.140	1.754	0.167	0.809	1.740	0.134	0.512	1.799	0.081	0.210	1.926	0.091	0.162	1.817	0.093	1.286	1.715	-0.131	0.685	1.594	-0.169	0.749	1.621	0.760	1.012	1.711	0.716	1.041	1.729
314	28.540	0.102	0.808	1.762	0.099	1.085	1.738	0.096	1.351	1.703	0.106	1.490	1.676	-0.051	1.250	1.679	-0.090	1.002	1.665	-0.133	0.811	1.619	-0.129	0.747	1.610	0.287	1.251	1.719	0.451	1.076	1.751	0.619	0.975	1.762	0.681	0.922	1.753	0.030	0.815	1.719	-0.058	0.496	1.751	-0.081	0.182	1.861	-0.064	0.142	1.750	0.170	0.807	1.740	0.135	0.511	1.799	0.082	0.210	1.926	0.091	0.163	1.816	0.097	1.286	1.714	-0.126	0.683	1.596	-0.166	0.748	1.621	0.738	0.870	1.734	0.706	0.923	1.746
315	28.557	0.102	0.808	1.762	0.099	1.085	1.738	0.096	1.351	1.703	0.106	1.490	1.676	-0.051	1.250	1.679	-0.090	1.002	1.665	-0.133	0.811	1.619	-0.129	0.747	1.610	0.287	1.251	1.719	0.451	1.076	1.751	0.619	0.975	1.762	0.681	0.922	1.753	0.030	0.815	1.719	-0.058	0.496	1.751	-0.081	0.182	1.861	-0.064	0.142	1.750	0.170	0.807	1.740	0.135	0.511	1.799	0.082	0.210	1.926	0.091	0.163	1.816	0.097	1.286	1.714	-0.126	0.683	1.596	-0.166	0.748	1.621	0.738	0.870	1.734	0.706	0.923	1.746
316	28.574	0.105	0.806	1.761	0.102	1.083	1.737	0.101	1.350	1.702	0.108	1.489	1.676	-0.048	1.249	1.678	-0.087	1.001	1.665	-0.131	0.810	1.619	-0.128	0.746	1.611	0.286	1.246	1.716	0.432	1.036	1.759	0.577	0.902	1.782	0.627	0.844	1.772	0.033	0.814	1.719	-0.056	0.494	1.750	-0.080	0.184	1.860	-0.063	0.143	1.748	0.174	0.805	1.739	0.143	0.509	1.803	0.083	0.208	1.925	0.092	0.162	1.816	0.101	1.285	1.713	-0.123	0.681	1.597	-0.164	0.746	1.621	0.680	0.755	1.771	0.642	0.844	1.773
317	28.590	0.105	0.806	1.761	0.102	1.083	1.737	0.101	1.350	1.702	0.108	1.489	1.676	-0.048	1.249	1.678	-0.087	1.001	1.665	-0.131	0.810	1.619	-0.128	0.746	1.611	0.286	1.246	1.716	0.432	1.036	1.759	0.577	0.902	1.782	0.627	0.844	1.772	0.033	0.814	1.719	-0.056	0.494	1.750	-0.080	0.184	1.860	-0.063	0.143	1.748	0.174	0.805	1.739	0.143	0.509	1.803	0.083	0.208	1.925	0.092	0.162	1.816	0.101	1.285	1.713	-0.123	0.681	1.597	-0.164	0.746	1.621	0.680	0.755	1.771	0.642	0.844	1.773
318	28.607	0.107	0.804	1.761	0.105	1.082	1.737	0.105	1.349	1.701	0.111	1.489	1.676	-0.044	1.248	1.677	-0.085	1.000	1.664	-0.130	0.809	1.619	-0.128	0.745	1.611	0.284	1.239	1.712	0.408	1.008	1.764	0.509	0.847	1.802	0.555	0.782	1.796	0.035	0.812	1.719	-0.054	0.493	1.750	-0.080	0.186	1.860	-0.063	0.144	1.746	0.176	0.802	1.738	0.151	0.506	1.806	0.083	0.207	1.925	0.092	0.161	1.816	0.105	1.284	1.712	-0.121	0.679	1.599	-0.163	0.746	1.622	0.590	0.679	1.800	0.570	0.767	1.800
319	28.624	0.107	0.804	1.761	0.105	1.082	1.737	0.105	1.349	1.701	0.111	1.489	1.676	-0.044	1.248	1.677	-0.085	1.000	1.664	-0.130	0.809	1.619	-0.128	0.745	1.611	0.284	1.239	1.712	0.408	1.008	1.764	0.509	0.847	1.802	0.555	0.782	1.796	0.035	0.812	1.719	-0.054	0.493	1.750	-0.080	0.186	1.860	-0.063	0.144	1.746	0.176	0.802	1.738	0.151	0.506	1.806	0.083	0.207	1.925	0.092	0.161	1.816	0.105	1.284	1.712	-0.121	0.679	1.599	-0.163	0.746	1.622	0.590	0.679	1.800	0.570	0.767	1.800
320	28.641	0.109	0.801	1.760	0.108	1.080	1.736	0.110	1.348	1.700	0.115	1.488	1.676	-0.039	1.247	1.676	-0.083	1.000	1.664	-0.129	0.808	1.619	-0.131	0.745	1.611	0.283	1.232	1.707	0.365	0.978	1.766	0.444	0.815	1.819	0.468	0.761	1.817	0.036	0.810	1.719	-0.053	0.491	1.750	-0.080	0.187	1.859	-0.063	0.144	1.745	0.178	0.799	1.737	0.149	0.503	1.804	0.084	0.207	1.924	0.092	0.162	1.815	0.109	1.282	1.711	-0.120	0.678	1.600	-0.162	0.746	1.622	0.485	0.657	1.827	0.482	0.728	1.820
321	28.657	0.109	0.801	1.760	0.108	1.080	1.736	0.110	1.348	1.700	0.115	1.488	1.676	-0.039	1.247	1.676	-0.083	1.000	1.664	-0.129	0.808	1.619	-0.131	0.745	1.611	0.283	1.232	1.707	0.365	0.978	1.766	0.444	0.815	1.819	0.468	0.761	1.817	0.036	0.810	1.719	-0.053	0.491	1.750	-0.080	0.187	1.859	-0.063	0.144	1.745	0.178	0.799	1.737	0.149	0.503	1.804	0.084	0.207	1.924	0.092	0.162	1.815	0.109	1.282	1.711	-0.120	0.678	1.600	-0.162	0.746	1.622	0.485	0.657	1.827	0.482	0.728	1.820
322	28.674	0.111	0.799	1.759	0.111	1.078	1.736	0.114	1.347	1.700	0.121	1.487	1.676	-0.034	1.246	1.675	-0.082	0.999	1.663	-0.129	0.808	1.619	-0.137	0.748	1.610	0.281	1.226	1.702	0.313	0.955	1.748	0.390	0.809	1.852	0.392	0.736	1.838	0.037	0.809	1.719	-0.051	0.490	1.749	-0.079	0.188	1.859	-0.063	0.144	1.744	0.180	0.796	1.735	0.146	0.501	1.803	0.085	0.206	1.923	0.092	0.160	1.815	0.113	1.281	1.711	-0.123	0.679	1.600	-0.164	0.747	1.622	0.380	0.628	1.863	0.396	0.722	1.836
323	28.691	0.111	0.799	1.759	0.111	1.078	1.736	0.114	1.347	1.700	0.121	1.487	1.676	-0.034	1.246	1.675	-0.082	0.999	1.663	-0.129	0.808	1.619	-0.137	0.748	1.610	0.281	1.226	1.702	0.313	0.955	1.748	0.390	0.809	1.852	0.392	0.736	1.838	0.037	0.809	1.719	-0.051	0.490	1.749	-0.079	0.188	1.859	-0.063	0.144	1.744	0.180	0.796	1.735	0.146	0.501	1.803	0.085	0.206	1.923	0.092	0.160	1.815	0.113	1.281	1.711	-0.123	0.679	1.600	-0.164	0.747	1.622	0.380	0.628	1.863	0.396	0.722	1.836
